<svg xmlns="http://www.w3.org/2000/svg" width="228" height="46" fill="none"><g clip-path="url(#a)"><path fill="#000" d="M0 28.52V11.502a1.049 1.049 0 0 1 .31-.778 1.05 1.05 0 0 1 .768-.308H5.03a1.066 1.066 0 0 1 .78.308 1.074 1.074 0 0 1 .299.778v6.263h7.726v-6.263a1.042 1.042 0 0 1 .31-.779 1.061 1.061 0 0 1 .786-.307h3.933a1.04 1.04 0 0 1 1.005.666c.053.134.078.277.074.42v17.016a1.015 1.015 0 0 1-.304.767 1.032 1.032 0 0 1-.775.296H14.93a1.076 1.076 0 0 1-.786-.302 1.039 1.039 0 0 1-.31-.76v-6.525H6.108v6.524a1.014 1.014 0 0 1-.31.767 1.062 1.062 0 0 1-.769.296H1.08a1.07 1.07 0 0 1-.78-.296 1.039 1.039 0 0 1-.3-.767ZM28.038 31.4l2.31.303c1.66 0 2.819-1.207 3.475-3.62a7.232 7.232 0 0 1-5.006-1.795c-1.34-1.197-2.493-3.327-3.458-6.39l-2.638-8.43a.922.922 0 0 1-.053-.325.758.758 0 0 1 .223-.442.837.837 0 0 1 .662-.285h3.687c.356.006.7.127.98.343.284.21.49.509.585.848l2.31 7.413a11.647 11.647 0 0 0 1.759 3.782c.248.322.568.583.933.764.366.181.768.278 1.177.282l3.517-12.24c.092-.334.287-.63.557-.849.257-.22.586-.342.926-.343h3.722a.756.756 0 0 1 .65.285.81.81 0 0 1 .218.459c.002.104-.01.207-.035.308l-4.625 16.33c-.825 2.894-1.845 4.958-3.06 6.194a6.288 6.288 0 0 1-2.149 1.413 6.333 6.333 0 0 1-2.54.44 26.826 26.826 0 0 1-4.063-.21 3.095 3.095 0 0 1-1.495-.517.985.985 0 0 1-.299-.708v-1.923a1.064 1.064 0 0 1 .3-.779 1.05 1.05 0 0 1 .779-.308h.65ZM47.111 34.422V11.503a1.046 1.046 0 0 1 .31-.778 1.037 1.037 0 0 1 .769-.308h3.406a1.065 1.065 0 0 1 .772.314 1.045 1.045 0 0 1 .3.772v.523a11.007 11.007 0 0 1 6.448-1.958 8.2 8.2 0 0 1 3.357.635 8.137 8.137 0 0 1 2.798 1.945c1.65 1.72 2.474 4.178 2.474 7.378 0 3.199-.854 5.65-2.562 7.355-1.708 1.7-4.007 2.552-6.9 2.556a17.492 17.492 0 0 1-5.099-.895v5.38a1.048 1.048 0 0 1-1.073 1.086h-3.95a1.048 1.048 0 0 1-.769-.308 1.056 1.056 0 0 1-.28-.778Zm6.09-9.418c1.236.426 2.528.667 3.834.715 1.614 0 2.757-.455 3.43-1.365.672-.91 1.01-2.36 1.013-4.352 0-1.992-.316-3.445-.96-4.345a3.27 3.27 0 0 0-1.263-1.047 3.304 3.304 0 0 0-1.616-.307c-1.272 0-2.755.523-4.437 1.575v9.126ZM111.428 28.52V11.502a1.058 1.058 0 0 1 .305-.778 1.049 1.049 0 0 1 .768-.308h3.687a1.07 1.07 0 0 1 .786.307 1.056 1.056 0 0 1 .31.779v11.491l6.208-11.317c.202-.371.502-.682.867-.9a2.154 2.154 0 0 1 1.131-.36h4.936a1.07 1.07 0 0 1 .786.307 1.047 1.047 0 0 1 .31.779v17.016a1.02 1.02 0 0 1-.673.995 1.08 1.08 0 0 1-.423.068h-3.687a1.04 1.04 0 0 1-.774-.302 1.047 1.047 0 0 1-.299-.761V17.045l-6.225 11.282a2.52 2.52 0 0 1-.862.883c-.332.23-.726.36-1.131.372h-4.959a1.031 1.031 0 0 1-1.005-.648 1.012 1.012 0 0 1-.068-.415h.012ZM135.854 28.52V11.502a1.046 1.046 0 0 1 .311-.778 1.049 1.049 0 0 1 .767-.308h3.951a1.044 1.044 0 0 1 .78.308 1.08 1.08 0 0 1 .299.778v6.263h7.726v-6.263a1.047 1.047 0 0 1 .671-1.014 1.07 1.07 0 0 1 .425-.072h3.933a1.061 1.061 0 0 1 .78.308 1.071 1.071 0 0 1 .299.778V28.52a1.045 1.045 0 0 1-.299.767 1.07 1.07 0 0 1-.78.296h-3.933a1.075 1.075 0 0 1-.786-.302 1.04 1.04 0 0 1-.31-.761v-6.524h-7.738v6.524a1.012 1.012 0 0 1-.311.767 1.046 1.046 0 0 1-.767.296h-3.951a1.059 1.059 0 0 1-.774-.296 1.024 1.024 0 0 1-.293-.767ZM161.365 28.327a5.238 5.238 0 0 1-1.771-1.971 5.188 5.188 0 0 1-.574-2.578 5.1 5.1 0 0 1 .571-2.563 5.154 5.154 0 0 1 1.774-1.95 10.624 10.624 0 0 1 6.026-1.57h5.862c0-1.366-.29-2.317-.868-2.852-.586-.534-1.583-.807-3.025-.807s-2.45.354-3.036 1.063a2.676 2.676 0 0 1-2.14 1.057h-2.632a1.074 1.074 0 0 1-1.02-.656 1.04 1.04 0 0 1-.076-.413c0-3.346 3.207-5.02 9.619-5.02 2.802 0 5.049.623 6.742 1.866 1.692 1.243 2.538 3.164 2.538 5.763v10.823a1.03 1.03 0 0 1-.068.415 1.025 1.025 0 0 1-1.005.648h-3.406a1.038 1.038 0 0 1-.779-.302 1.038 1.038 0 0 1-.299-.761v-.546a10.79 10.79 0 0 1-6.448 1.97 10.415 10.415 0 0 1-5.985-1.616Zm4.502-6.07a2.018 2.018 0 0 0-.538 2.402c.126.267.31.504.538.694a3.208 3.208 0 0 0 2.098.61 9.75 9.75 0 0 0 5.241-1.575V21.64h-5.417a2.947 2.947 0 0 0-1.922.616ZM183.681 28.52V11.502a1.058 1.058 0 0 1 .305-.778 1.049 1.049 0 0 1 .768-.308h3.956a1.04 1.04 0 0 1 .774.308 1.08 1.08 0 0 1 .299.778v6.263h7.732v-6.263a1.027 1.027 0 0 1 .306-.779 1.052 1.052 0 0 1 .784-.307h3.933a1.044 1.044 0 0 1 .78.308 1.08 1.08 0 0 1 .299.778V28.52a1.019 1.019 0 0 1-.301.769 1.039 1.039 0 0 1-.778.294h-3.933a1.075 1.075 0 0 1-.785-.302 1.02 1.02 0 0 1-.305-.76v-6.525h-7.732v6.524a1.006 1.006 0 0 1-.311.767 1.041 1.041 0 0 1-.762.296h-3.956a1.036 1.036 0 0 1-.774-.296 1.007 1.007 0 0 1-.299-.767ZM217.333 29.936c-3.302 0-5.869-.84-7.702-2.52-1.833-1.682-2.749-4.15-2.749-7.408 0-3.257.91-5.728 2.731-7.413 1.821-1.685 4.362-2.527 7.621-2.527 3.251 0 5.752.513 7.503 1.54a5.003 5.003 0 0 1 1.959 1.906c.462.803.689 1.718.655 2.642a1.022 1.022 0 0 1-.304.767 1.09 1.09 0 0 1-.786.296h-2.632a2.42 2.42 0 0 1-1.186-.367 2.39 2.39 0 0 1-.842-.905c-.692-1.1-1.917-1.648-3.675-1.644-1.759 0-2.99.441-3.688 1.336-.697.895-1.055 2.324-1.055 4.363 0 2.04.364 3.486 1.091 4.369.726.883 1.981 1.348 3.775 1.348 1.793 0 3.036-.546 3.728-1.644.194-.367.48-.677.832-.9a2.422 2.422 0 0 1 1.173-.373h2.631a1.074 1.074 0 0 1 .786.308 1.034 1.034 0 0 1 .311.761 4.942 4.942 0 0 1-.657 2.644 4.996 4.996 0 0 1-1.964 1.905c-1.746 1.007-4.265 1.513-7.556 1.516Z"/><path fill="#60AAFB" d="M82.365 23.715V6.024s-5.481 1.835-5.815 1.98a7.072 7.072 0 0 0-3.08 2.572 6.98 6.98 0 0 0-1.17 3.819v14.303a6.997 6.997 0 0 0 1.17 3.816 7.089 7.089 0 0 0 3.074 2.575c.334.145 5.82 1.98 5.82 1.98v-6.913h-2.66l2.66-6.442Z"/><path fill="#355DFB" d="M94.563 12.084V0s-5.487 1.842-5.815 1.981a7.083 7.083 0 0 0-3.079 2.572 6.991 6.991 0 0 0-1.171 3.819v15.424l2.62 6.39h-2.62v15.837s5.487-1.841 5.82-1.987a7.089 7.089 0 0 0 3.078-2.573 6.996 6.996 0 0 0 1.173-3.817V18.62h-2.68l2.674-6.536Z"/><path fill="#0000DE" d="M106.674 14.402a6.981 6.981 0 0 0-1.169-3.82 7.077 7.077 0 0 0-3.081-2.57c-.334-.146-5.815-1.982-5.815-1.982v6.106l2.673 6.49H96.61v18.462s5.487-1.836 5.821-1.98a7.087 7.087 0 0 0 3.074-2.575 7 7 0 0 0 1.17-3.816V14.402Z"/></g><defs><clipPath id="a"><path fill="#fff" d="M0 0h227.504v46H0z"/></clipPath></defs></svg>