<svg xmlns="http://www.w3.org/2000/svg" width="162" height="234" fill="none"><g filter="url(#a)" shape-rendering="crispEdges"><path fill="url(#b)" fill-opacity=".6" d="M57.921 38.905a60.015 60.015 0 0 0-26.036 21.977A60.063 60.063 0 0 0 22 93.497V195.814s46.337-15.691 49.177-16.905a60.076 60.076 0 0 0 26.027-21.983 60.114 60.114 0 0 0 9.894-32.609V22S60.732 37.69 57.921 38.905Z"/><path fill="#6685FF" fill-opacity=".3" d="M57.921 38.905a60.015 60.015 0 0 0-26.036 21.977A60.063 60.063 0 0 0 22 93.497V195.814s46.337-15.691 49.177-16.905a60.076 60.076 0 0 0 26.027-21.983 60.114 60.114 0 0 0 9.894-32.609V22S60.732 37.69 57.921 38.905Z"/><path stroke="url(#c)" stroke-opacity=".6" d="m105.261 23.15 1.337-.453v101.618a59.625 59.625 0 0 1-9.812 32.336 59.566 59.566 0 0 1-25.808 21.799c-1.41.602-13.666 4.815-25.616 8.893-5.97 2.038-11.85 4.037-16.238 5.527l-5.288 1.794-1.336.453V93.499a59.563 59.563 0 0 1 9.803-32.342 59.514 59.514 0 0 1 25.818-21.794c1.387-.598 13.646-4.813 25.604-8.893a10799.881 10799.881 0 0 1 21.536-7.32Z"/><path stroke="url(#d)" d="m105.261 23.15 1.337-.453v101.618a59.625 59.625 0 0 1-9.812 32.336 59.566 59.566 0 0 1-25.808 21.799c-1.41.602-13.666 4.815-25.616 8.893-5.97 2.038-11.85 4.037-16.238 5.527l-5.288 1.794-1.336.453V93.499a59.563 59.563 0 0 1 9.803-32.342 59.514 59.514 0 0 1 25.818-21.794c1.387-.598 13.646-4.813 25.604-8.893a10799.881 10799.881 0 0 1 21.536-7.32Z"/></g><g filter="url(#e)" shape-rendering="crispEdges"><path fill="url(#f)" fill-opacity=".6" d="M96.419 85.085a47.118 47.118 0 0 0-20.457 17.216 46.948 46.948 0 0 0-7.767 25.549V208s36.407-12.291 38.639-13.242a47.17 47.17 0 0 0 20.449-17.221 47.002 47.002 0 0 0 7.775-25.544v-80.15s-36.43 12.291-38.64 13.242Z"/><path fill="#2020EB" fill-opacity=".3" d="M96.419 85.085a47.118 47.118 0 0 0-20.457 17.216 46.948 46.948 0 0 0-7.767 25.549V208s36.407-12.291 38.639-13.242a47.17 47.17 0 0 0 20.449-17.221 47.002 47.002 0 0 0 7.775-25.544v-80.15s-36.43 12.291-38.64 13.242Z"/><path stroke="url(#g)" stroke-opacity=".6" d="m133.648 72.846.91-.307v79.452a46.493 46.493 0 0 1-7.692 25.271 46.662 46.662 0 0 1-20.23 17.037c-1.106.47-10.728 3.768-20.12 6.963-4.69 1.596-9.31 3.162-12.758 4.329l-4.154 1.405-.91.307V127.852a46.45 46.45 0 0 1 7.685-25.276 46.62 46.62 0 0 1 20.239-17.032c1.086-.467 10.71-3.766 20.109-6.963 4.692-1.596 9.315-3.162 12.764-4.33l4.157-1.405Z"/><path stroke="url(#h)" d="m133.648 72.846.91-.307v79.452a46.493 46.493 0 0 1-7.692 25.271 46.662 46.662 0 0 1-20.23 17.037c-1.106.47-10.728 3.768-20.12 6.963-4.69 1.596-9.31 3.162-12.758 4.329l-4.154 1.405-.91.307V127.852a46.45 46.45 0 0 1 7.685-25.276 46.62 46.62 0 0 1 20.239-17.032c1.086-.467 10.71-3.766 20.109-6.963 4.692-1.596 9.315-3.162 12.764-4.33l4.157-1.405Z"/></g><g clip-path="url(#i)"><path fill="#fff" d="m66.528 100.663 24.067 13.883c4.153 2.389 4.153 8.363 0 10.753l-24.067 13.883c-4.097 2.39-9.275-.569-9.275-5.348v-27.823c0-4.779 5.178-7.738 9.275-5.348Z"/></g><defs><linearGradient id="b" x1="64.549" x2="157.95" y1="22" y2="55.962" gradientUnits="userSpaceOnUse"><stop stop-color="#fff" stop-opacity=".2"/><stop offset="1" stop-color="#fff" stop-opacity="0"/></linearGradient><linearGradient id="c" x1="123.417" x2="94.335" y1="91.485" y2="91.937" gradientUnits="userSpaceOnUse"><stop stop-color="#fff"/><stop offset="1" stop-color="#EFEFEF" stop-opacity="0"/></linearGradient><linearGradient id="d" x1="22" x2="63.365" y1="22" y2="32.765" gradientUnits="userSpaceOnUse"><stop stop-color="#fff" stop-opacity=".5"/><stop offset="1" stop-color="#fff" stop-opacity="0"/></linearGradient><linearGradient id="f" x1="101.626" x2="174.961" y1="71.843" y2="98.588" gradientUnits="userSpaceOnUse"><stop stop-color="#fff" stop-opacity=".2"/><stop offset="1" stop-color="#fff" stop-opacity="0"/></linearGradient><linearGradient id="g" x1="147.88" x2="125.029" y1="126.274" y2="126.63" gradientUnits="userSpaceOnUse"><stop stop-color="#fff"/><stop offset="1" stop-color="#EFEFEF" stop-opacity="0"/></linearGradient><linearGradient id="h" x1="68.195" x2="100.684" y1="71.843" y2="80.323" gradientUnits="userSpaceOnUse"><stop stop-color="#fff" stop-opacity=".5"/><stop offset="1" stop-color="#fff" stop-opacity="0"/></linearGradient><filter id="a" width="133.099" height="221.814" x="0" y="0" color-interpolation-filters="sRGB" filterUnits="userSpaceOnUse"><feFlood flood-opacity="0" result="BackgroundImageFix"/><feGaussianBlur in="BackgroundImageFix" stdDeviation="8"/><feComposite in2="SourceAlpha" operator="in" result="effect1_backgroundBlur_16_476"/><feColorMatrix in="SourceAlpha" result="hardAlpha" values="0 0 0 0 0 0 0 0 0 0 0 0 0 0 0 0 0 0 127 0"/><feOffset dx="2" dy="2"/><feGaussianBlur stdDeviation="12"/><feComposite in2="hardAlpha" operator="out"/><feColorMatrix values="0 0 0 0 0 0 0 0 0 0 0 0 0 0 0 0 0 0 0.15 0"/><feBlend in2="effect1_backgroundBlur_16_476" result="effect2_dropShadow_16_476"/><feBlend in="SourceGraphic" in2="effect2_dropShadow_16_476" result="shape"/></filter><filter id="e" width="114.863" height="184.157" x="46.195" y="49.843" color-interpolation-filters="sRGB" filterUnits="userSpaceOnUse"><feFlood flood-opacity="0" result="BackgroundImageFix"/><feGaussianBlur in="BackgroundImageFix" stdDeviation="8"/><feComposite in2="SourceAlpha" operator="in" result="effect1_backgroundBlur_16_476"/><feColorMatrix in="SourceAlpha" result="hardAlpha" values="0 0 0 0 0 0 0 0 0 0 0 0 0 0 0 0 0 0 127 0"/><feOffset dx="2" dy="2"/><feGaussianBlur stdDeviation="12"/><feComposite in2="hardAlpha" operator="out"/><feColorMatrix values="0 0 0 0 0 0 0 0 0 0 0 0 0 0 0 0 0 0 0.15 0"/><feBlend in2="effect1_backgroundBlur_16_476" result="effect2_dropShadow_16_476"/><feBlend in="SourceGraphic" in2="effect2_dropShadow_16_476" result="shape"/></filter><clipPath id="i"><path fill="#fff" d="M57.253 99.805h36.471v40.226h-36.47z"/></clipPath></defs></svg>