<svg width="162" height="234" viewBox="0 0 162 234" fill="none" xmlns="http://www.w3.org/2000/svg">
<g filter="url(#filter0_bd_16_695)">
<path d="M57.9212 38.9047C47.303 43.5602 38.2601 51.1935 31.8853 60.8817C25.5105 70.5699 22.0771 81.8983 22 93.4973V98.9447V195.814C22 195.814 68.3366 180.123 71.1772 178.909C81.791 174.248 90.8299 166.613 97.2038 156.926C103.578 147.239 107.014 135.914 107.098 124.317V122.126V22C107.098 22 60.7322 37.6909 57.9212 38.9047Z" fill="url(#paint0_linear_16_695)" fill-opacity="0.6" shape-rendering="crispEdges"/>
<path d="M57.9212 38.9047C47.303 43.5602 38.2601 51.1935 31.8853 60.8817C25.5105 70.5699 22.0771 81.8983 22 93.4973V98.9447V195.814C22 195.814 68.3366 180.123 71.1772 178.909C81.791 174.248 90.8299 166.613 97.2038 156.926C103.578 147.239 107.014 135.914 107.098 124.317V122.126V22C107.098 22 60.7322 37.6909 57.9212 38.9047Z" fill="#6685FF" fill-opacity="0.3" shape-rendering="crispEdges"/>
<path d="M105.261 23.1501L106.598 22.6972V122.126V124.315C106.514 135.815 103.107 147.045 96.7861 156.651C90.4656 166.257 81.5026 173.828 70.978 178.451C69.5675 179.052 57.3118 183.265 45.3619 187.344C39.3926 189.381 33.512 191.38 29.1237 192.87C26.9296 193.615 25.1085 194.232 23.836 194.664L22.5 195.117V98.9447V93.499C22.5768 81.997 25.9816 70.7636 32.303 61.1565C38.6244 51.5494 47.5915 43.98 58.1207 39.3632C59.5084 38.7647 71.7667 34.5502 83.7254 30.4704C89.6965 28.4333 95.5799 26.4341 99.9705 24.9442C102.166 24.1992 103.988 23.5815 105.261 23.1501Z" stroke="url(#paint1_linear_16_695)" stroke-opacity="0.6" shape-rendering="crispEdges"/>
<path d="M105.261 23.1501L106.598 22.6972V122.126V124.315C106.514 135.815 103.107 147.045 96.7861 156.651C90.4656 166.257 81.5026 173.828 70.978 178.451C69.5675 179.052 57.3118 183.265 45.3619 187.344C39.3926 189.381 33.512 191.38 29.1237 192.87C26.9296 193.615 25.1085 194.232 23.836 194.664L22.5 195.117V98.9447V93.499C22.5768 81.997 25.9816 70.7636 32.303 61.1565C38.6244 51.5494 47.5915 43.98 58.1207 39.3632C59.5084 38.7647 71.7667 34.5502 83.7254 30.4704C89.6965 28.4333 95.5799 26.4341 99.9705 24.9442C102.166 24.1992 103.988 23.5815 105.261 23.1501Z" stroke="url(#paint2_linear_16_695)" shape-rendering="crispEdges"/>
</g>
<g filter="url(#filter1_bd_16_695)">
<path d="M96.4182 85.0848C88.0752 88.7317 80.9701 94.7112 75.9614 102.3C70.9526 109.89 68.2549 118.764 68.1943 127.85V132.117V208C68.1943 208 104.602 195.708 106.834 194.758C115.173 191.106 122.275 185.125 127.283 177.537C132.291 169.949 134.991 161.077 135.057 151.992V150.276V71.8424C135.057 71.8424 98.6268 84.1339 96.4182 85.0848Z" fill="url(#paint3_linear_16_695)" fill-opacity="0.6" shape-rendering="crispEdges"/>
<path d="M96.4182 85.0848C88.0752 88.7317 80.9701 94.7112 75.9614 102.3C70.9526 109.89 68.2549 118.764 68.1943 127.85V132.117V208C68.1943 208 104.602 195.708 106.834 194.758C115.173 191.106 122.275 185.125 127.283 177.537C132.291 169.949 134.991 161.077 135.057 151.992V150.276V71.8424C135.057 71.8424 98.6268 84.1339 96.4182 85.0848Z" fill="#2020EB" fill-opacity="0.3" shape-rendering="crispEdges"/>
<path d="M133.648 72.8461L134.557 72.5389V150.276V151.991C134.491 160.978 131.82 169.755 126.866 177.262C121.911 184.769 114.885 190.686 106.635 194.299C105.529 194.768 95.9078 198.066 86.516 201.262C81.8259 202.858 77.2055 204.424 73.7575 205.591C72.0336 206.174 70.6028 206.658 69.603 206.996L68.6943 207.303V132.117V127.852C68.7546 118.863 71.4235 110.084 76.3787 102.576C81.3339 95.0677 88.3631 89.1518 96.6171 85.5435C97.7035 85.0764 107.328 81.7775 116.727 78.5804C121.419 76.9846 126.041 75.4186 129.491 74.2514C131.216 73.6679 132.647 73.1841 133.648 72.8461Z" stroke="url(#paint4_linear_16_695)" stroke-opacity="0.6" shape-rendering="crispEdges"/>
<path d="M133.648 72.8461L134.557 72.5389V150.276V151.991C134.491 160.978 131.82 169.755 126.866 177.262C121.911 184.769 114.885 190.686 106.635 194.299C105.529 194.768 95.9078 198.066 86.516 201.262C81.8259 202.858 77.2055 204.424 73.7575 205.591C72.0336 206.174 70.6028 206.658 69.603 206.996L68.6943 207.303V132.117V127.852C68.7546 118.863 71.4235 110.084 76.3787 102.576C81.3339 95.0677 88.3631 89.1518 96.6171 85.5435C97.7035 85.0764 107.328 81.7775 116.727 78.5804C121.419 76.9846 126.041 75.4186 129.491 74.2514C131.216 73.6679 132.647 73.1841 133.648 72.8461Z" stroke="url(#paint5_linear_16_695)" shape-rendering="crispEdges"/>
</g>
<g clip-path="url(#clip0_16_695)">
<path d="M66.5271 100.663L90.5944 114.546C94.7479 116.936 94.7479 122.91 90.5944 125.299L66.5271 139.182C62.4305 141.572 57.2529 138.613 57.2529 133.834V106.011C57.2529 101.232 62.4305 98.2735 66.5271 100.663Z" fill="white"/>
</g>
<defs>
<filter id="filter0_bd_16_695" x="0" y="0" width="133.099" height="221.814" filterUnits="userSpaceOnUse" color-interpolation-filters="sRGB">
<feFlood flood-opacity="0" result="BackgroundImageFix"/>
<feGaussianBlur in="BackgroundImageFix" stdDeviation="8"/>
<feComposite in2="SourceAlpha" operator="in" result="effect1_backgroundBlur_16_695"/>
<feColorMatrix in="SourceAlpha" type="matrix" values="0 0 0 0 0 0 0 0 0 0 0 0 0 0 0 0 0 0 127 0" result="hardAlpha"/>
<feOffset dx="2" dy="2"/>
<feGaussianBlur stdDeviation="12"/>
<feComposite in2="hardAlpha" operator="out"/>
<feColorMatrix type="matrix" values="0 0 0 0 0 0 0 0 0 0 0 0 0 0 0 0 0 0 0.15 0"/>
<feBlend mode="normal" in2="effect1_backgroundBlur_16_695" result="effect2_dropShadow_16_695"/>
<feBlend mode="normal" in="SourceGraphic" in2="effect2_dropShadow_16_695" result="shape"/>
</filter>
<filter id="filter1_bd_16_695" x="46.1943" y="49.8424" width="114.863" height="184.158" filterUnits="userSpaceOnUse" color-interpolation-filters="sRGB">
<feFlood flood-opacity="0" result="BackgroundImageFix"/>
<feGaussianBlur in="BackgroundImageFix" stdDeviation="8"/>
<feComposite in2="SourceAlpha" operator="in" result="effect1_backgroundBlur_16_695"/>
<feColorMatrix in="SourceAlpha" type="matrix" values="0 0 0 0 0 0 0 0 0 0 0 0 0 0 0 0 0 0 127 0" result="hardAlpha"/>
<feOffset dx="2" dy="2"/>
<feGaussianBlur stdDeviation="12"/>
<feComposite in2="hardAlpha" operator="out"/>
<feColorMatrix type="matrix" values="0 0 0 0 0 0 0 0 0 0 0 0 0 0 0 0 0 0 0.15 0"/>
<feBlend mode="normal" in2="effect1_backgroundBlur_16_695" result="effect2_dropShadow_16_695"/>
<feBlend mode="normal" in="SourceGraphic" in2="effect2_dropShadow_16_695" result="shape"/>
</filter>
<linearGradient id="paint0_linear_16_695" x1="64.5492" y1="22" x2="157.95" y2="55.9616" gradientUnits="userSpaceOnUse">
<stop stop-color="white" stop-opacity="0.2"/>
<stop offset="1" stop-color="white" stop-opacity="0"/>
</linearGradient>
<linearGradient id="paint1_linear_16_695" x1="123.417" y1="91.4851" x2="94.3345" y2="91.937" gradientUnits="userSpaceOnUse">
<stop stop-color="white"/>
<stop offset="1" stop-color="#EFEFEF" stop-opacity="0"/>
</linearGradient>
<linearGradient id="paint2_linear_16_695" x1="22" y1="22" x2="63.3655" y2="32.7652" gradientUnits="userSpaceOnUse">
<stop stop-color="white" stop-opacity="0.5"/>
<stop offset="1" stop-color="white" stop-opacity="0"/>
</linearGradient>
<linearGradient id="paint3_linear_16_695" x1="101.626" y1="71.8424" x2="174.961" y2="98.5881" gradientUnits="userSpaceOnUse">
<stop stop-color="white" stop-opacity="0.2"/>
<stop offset="1" stop-color="white" stop-opacity="0"/>
</linearGradient>
<linearGradient id="paint4_linear_16_695" x1="147.879" y1="126.274" x2="125.029" y2="126.63" gradientUnits="userSpaceOnUse">
<stop stop-color="white"/>
<stop offset="1" stop-color="#EFEFEF" stop-opacity="0"/>
</linearGradient>
<linearGradient id="paint5_linear_16_695" x1="68.1943" y1="71.8424" x2="100.683" y2="80.323" gradientUnits="userSpaceOnUse">
<stop stop-color="white" stop-opacity="0.5"/>
<stop offset="1" stop-color="white" stop-opacity="0"/>
</linearGradient>
<clipPath id="clip0_16_695">
<rect width="36.4708" height="40.2259" fill="white" transform="translate(57.2529 99.8048)"/>
</clipPath>
</defs>
</svg>
