<svg xmlns="http://www.w3.org/2000/svg" width="64" height="64" fill="none"><path fill="#355DFB" d="M50.601 41.02c-5.354 10.051-15.41 13.935-17.987 14.79-.398.136-.83.136-1.228 0-2.577-.855-12.633-4.739-17.988-14.79h.001L32 28l18.6 13.02h.001Z" opacity=".2"/><path stroke="#355DFB" stroke-linecap="round" stroke-linejoin="round" d="M10 26.667V12a2 2 0 0 1 2-2h40a2 2 0 0 1 2 2v14.667c0 21.003-17.827 27.962-21.386 29.142-.398.137-.83.137-1.228 0C27.826 54.63 10 47.67 10 26.667Z"/><path stroke="#355DFB" stroke-linecap="round" stroke-linejoin="round" d="M50.6 41.02 32 28 13.4 41.02"/></svg>