<svg xmlns="http://www.w3.org/2000/svg" width="1620" height="393" fill="none"><g clip-path="url(#a)" filter="url(#b)" opacity=".8"><path fill="url(#c)" fill-opacity=".6" d="M1579 242s-26.15 8.925-27.74 9.632a33.964 33.964 0 0 0-14.71 12.536 34.446 34.446 0 0 0-5.55 18.6V393s26.09-8.925 27.76-9.632a33.948 33.948 0 0 0 14.67-12.497 34.359 34.359 0 0 0 5.59-18.538v-39.977L1579 242Z"/><path fill="#60AAFB" fill-opacity=".2" d="M1579 242s-26.15 8.925-27.74 9.632a33.964 33.964 0 0 0-14.71 12.536 34.446 34.446 0 0 0-5.55 18.6V393s26.09-8.925 27.76-9.632a33.948 33.948 0 0 0 14.67-12.497 34.359 34.359 0 0 0 5.59-18.538v-39.977L1579 242Z"/><path stroke="url(#d)" stroke-opacity=".6" d="m1531.96 392.142-.46.158V282.77a33.924 33.924 0 0 1 5.47-18.329 33.465 33.465 0 0 1 14.49-12.351v-.001c.38-.166 2.28-.847 4.97-1.788 2.67-.936 6.09-2.118 9.46-3.277 3.37-1.16 6.68-2.298 9.16-3.145 1.24-.424 2.27-.776 2.98-1.021l.47-.159.02 69.657v39.975a33.925 33.925 0 0 1-5.51 18.267 33.46 33.46 0 0 1-14.45 12.311c-.83.35-7.73 2.745-14.47 5.067-3.37 1.16-6.68 2.298-9.15 3.145-1.24.424-2.26.776-2.98 1.021Z"/><path stroke="url(#e)" d="m1531.96 392.142-.46.158V282.77a33.924 33.924 0 0 1 5.47-18.329 33.465 33.465 0 0 1 14.49-12.351v-.001c.38-.166 2.28-.847 4.97-1.788 2.67-.936 6.09-2.118 9.46-3.277 3.37-1.16 6.68-2.298 9.16-3.145 1.24-.424 2.27-.776 2.98-1.021l.47-.159.02 69.657v39.975a33.925 33.925 0 0 1-5.51 18.267 33.46 33.46 0 0 1-14.45 12.311c-.83.35-7.73 2.745-14.47 5.067-3.37 1.16-6.68 2.298-9.15 3.145-1.24.424-2.26.776-2.98 1.021Z"/></g><g clip-path="url(#f)" filter="url(#g)" opacity=".8"><path fill="url(#h)" fill-opacity=".6" d="M1460.52 69.076a67.688 67.688 0 0 0-29.37 24.799 67.825 67.825 0 0 0-11.15 36.803v115.456s52.27-17.706 55.48-19.076a67.787 67.787 0 0 0 29.36-24.806 67.897 67.897 0 0 0 11.16-36.797V50s-52.31 17.706-55.48 19.076Z"/><path fill="#60AAFB" fill-opacity=".2" d="M1460.52 69.076a67.688 67.688 0 0 0-29.37 24.799 67.825 67.825 0 0 0-11.15 36.803v115.456s52.27-17.706 55.48-19.076a67.787 67.787 0 0 0 29.36-24.806 67.897 67.897 0 0 0 11.16-36.797V50s-52.31 17.706-55.48 19.076Z"/><path stroke="url(#i)" stroke-opacity=".6" d="m1513.91 51.237 1.59-.54v114.757a67.37 67.37 0 0 1-11.08 36.523 67.304 67.304 0 0 1-29.14 24.622c-1.59.678-15.42 5.435-28.9 10.037-6.74 2.299-13.37 4.555-18.32 6.236-2.48.841-4.53 1.538-5.97 2.025l-1.59.539V130.68a67.301 67.301 0 0 1 11.07-36.53 67.207 67.207 0 0 1 29.15-24.616c1.57-.677 15.4-5.434 28.89-10.037a11087.922 11087.922 0 0 1 24.3-8.26Z"/><path stroke="url(#j)" d="m1513.91 51.237 1.59-.54v114.757a67.37 67.37 0 0 1-11.08 36.523 67.304 67.304 0 0 1-29.14 24.622c-1.59.678-15.42 5.435-28.9 10.037-6.74 2.299-13.37 4.555-18.32 6.236-2.48.841-4.53 1.538-5.97 2.025l-1.59.539V130.68a67.301 67.301 0 0 1 11.07-36.53 67.207 67.207 0 0 1 29.15-24.616c1.57-.677 15.4-5.434 28.89-10.037a11087.922 11087.922 0 0 1 24.3-8.26Z"/></g><g clip-path="url(#k)" filter="url(#l)" opacity=".8"><path fill="url(#m)" fill-opacity=".6" d="M1508.37 10.511a37.364 37.364 0 0 0-16.21 13.665 37.324 37.324 0 0 0-6.16 20.28v63.618s28.86-9.757 30.63-10.511a37.403 37.403 0 0 0 16.21-13.669 37.312 37.312 0 0 0 6.16-20.276V0s-28.88 9.756-30.63 10.511Z"/><path fill="#60AAFB" fill-opacity=".2" d="M1508.37 10.511a37.364 37.364 0 0 0-16.21 13.665 37.324 37.324 0 0 0-6.16 20.28v63.618s28.86-9.757 30.63-10.511a37.403 37.403 0 0 0 16.21-13.669 37.312 37.312 0 0 0 6.16-20.276V0s-28.88 9.756-30.63 10.511Z"/><path stroke="url(#n)" stroke-opacity=".6" d="m1537.92.894.58-.197v62.919a36.79 36.79 0 0 1-6.08 20.003 36.925 36.925 0 0 1-15.99 13.485c-.87.371-8.49 2.986-15.94 5.524-3.72 1.266-7.38 2.509-10.11 3.436-1.37.463-2.5.847-3.3 1.115l-.58.198v-62.92a36.874 36.874 0 0 1 6.07-20.006 36.911 36.911 0 0 1 16-13.481c.86-.37 8.48-2.985 15.93-5.524 3.72-1.267 7.39-2.51 10.12-3.436 1.37-.463 2.5-.847 3.3-1.116Z"/><path stroke="url(#o)" d="m1537.92.894.58-.197v62.919a36.79 36.79 0 0 1-6.08 20.003 36.925 36.925 0 0 1-15.99 13.485c-.87.371-8.49 2.986-15.94 5.524-3.72 1.266-7.38 2.509-10.11 3.436-1.37.463-2.5.847-3.3 1.115l-.58.198v-62.92a36.874 36.874 0 0 1 6.07-20.006 36.911 36.911 0 0 1 16-13.481c.86-.37 8.48-2.985 15.93-5.524 3.72-1.267 7.39-2.51 10.12-3.436 1.37-.463 2.5-.847 3.3-1.116Z"/></g><g clip-path="url(#p)" filter="url(#q)" opacity=".8"><path fill="url(#r)" fill-opacity=".6" d="M1606.71 134.477a16.13 16.13 0 0 0-7.04 5.82 15.696 15.696 0 0 0-2.67 8.638v27.096s12.52-4.155 13.29-4.477a16.203 16.203 0 0 0 7.04-5.821 15.692 15.692 0 0 0 2.67-8.636V130s-12.53 4.155-13.29 4.477Z"/><path fill="#60AAFB" fill-opacity=".2" d="M1606.71 134.477a16.13 16.13 0 0 0-7.04 5.82 15.696 15.696 0 0 0-2.67 8.638v27.096s12.52-4.155 13.29-4.477a16.203 16.203 0 0 0 7.04-5.821 15.692 15.692 0 0 0 2.67-8.636V130s-12.53 4.155-13.29 4.477Z"/><path stroke="url(#s)" stroke-opacity=".6" d="M1618.19 131.129c.53-.176.97-.325 1.31-.436v26.402a15.16 15.16 0 0 1-2.59 8.359 15.656 15.656 0 0 1-6.81 5.64c-.38.155-3.66 1.262-6.9 2.345a1516.532 1516.532 0 0 1-5.7 1.899V148.936c.02-2.972.92-5.876 2.59-8.36a15.634 15.634 0 0 1 6.81-5.639c.37-.153 3.65-1.261 6.9-2.345 1.61-.539 3.2-1.069 4.39-1.463Z"/><path stroke="url(#t)" d="M1618.19 131.129c.53-.176.97-.325 1.31-.436v26.402a15.16 15.16 0 0 1-2.59 8.359 15.656 15.656 0 0 1-6.81 5.64c-.38.155-3.66 1.262-6.9 2.345a1516.532 1516.532 0 0 1-5.7 1.899V148.936c.02-2.972.92-5.876 2.59-8.36a15.634 15.634 0 0 1 6.81-5.639c.37-.153 3.65-1.261 6.9-2.345 1.61-.539 3.2-1.069 4.39-1.463Z"/></g><g clip-path="url(#u)" filter="url(#v)" opacity=".8"><path fill="url(#w)" fill-opacity=".6" d="M108.999 134s-39.229 13.24-41.607 14.289a50.744 50.744 0 0 0-22.063 18.596A50.58 50.58 0 0 0 37 194.478V358s39.13-13.24 41.632-14.289a50.79 50.79 0 0 0 22.014-18.538 50.628 50.628 0 0 0 8.378-27.501v-59.304L108.999 134Z"/><path fill="#60AAFB" fill-opacity=".2" d="M108.999 134s-39.229 13.24-41.607 14.289a50.744 50.744 0 0 0-22.063 18.596A50.58 50.58 0 0 0 37 194.478V358s39.13-13.24 41.632-14.289a50.79 50.79 0 0 0 22.014-18.538 50.628 50.628 0 0 0 8.378-27.501v-59.304L108.999 134Z"/><path stroke="url(#x)" stroke-opacity=".6" d="m38.526 356.956-1.026.347V194.479a50.08 50.08 0 0 1 8.247-27.319 50.237 50.237 0 0 1 21.845-18.413l.002-.001c.57-.251 3.438-1.266 7.466-2.66 4.011-1.388 9.137-3.141 14.189-4.862 5.052-1.72 10.03-3.408 13.744-4.665l4.476-1.514 1.031-.348.024 103.671v59.302a50.121 50.121 0 0 1-8.295 27.227 50.301 50.301 0 0 1-21.793 18.355c-1.249.521-11.618 4.081-21.72 7.524a9761.01 9761.01 0 0 1-13.724 4.665l-4.466 1.515Z"/><path stroke="url(#y)" d="m38.526 356.956-1.026.347V194.479a50.08 50.08 0 0 1 8.247-27.319 50.237 50.237 0 0 1 21.845-18.413l.002-.001c.57-.251 3.438-1.266 7.466-2.66 4.011-1.388 9.137-3.141 14.189-4.862 5.052-1.72 10.03-3.408 13.744-4.665l4.476-1.514 1.031-.348.024 103.671v59.302a50.121 50.121 0 0 1-8.295 27.227 50.301 50.301 0 0 1-21.793 18.355c-1.249.521-11.618 4.081-21.72 7.524a9761.01 9761.01 0 0 1-13.724 4.665l-4.466 1.515Z"/></g><g clip-path="url(#z)" filter="url(#A)" opacity=".8"><path fill="url(#B)" fill-opacity=".6" d="M30.814 92.501A51.481 51.481 0 0 0 8.48 111.354 51.52 51.52 0 0 0 0 139.332v87.77s39.749-13.46 42.185-14.502a51.537 51.537 0 0 0 22.326-18.857A51.576 51.576 0 0 0 73 165.77V78S33.225 91.46 30.814 92.501Z"/><path fill="#60AAFB" fill-opacity=".2" d="M30.814 92.501A51.481 51.481 0 0 0 8.48 111.354 51.52 51.52 0 0 0 0 139.332v87.77s39.749-13.46 42.185-14.502a51.537 51.537 0 0 0 22.326-18.857A51.576 51.576 0 0 0 73 165.77V78S33.225 91.46 30.814 92.501Z"/><path stroke="url(#C)" stroke-opacity=".6" d="m71.446 79.054 1.053-.357v87.071a51.077 51.077 0 0 1-8.405 27.7 51.036 51.036 0 0 1-22.108 18.674c-1.208.515-11.716 4.127-21.969 7.626a9001.607 9001.607 0 0 1-18.465 6.28l-1.052.356V139.334a51.026 51.026 0 0 1 8.398-27.706A50.986 50.986 0 0 1 31.014 92.96c1.187-.512 11.698-4.126 21.958-7.627a9270.465 9270.465 0 0 1 18.474-6.279Z"/><path stroke="url(#D)" d="m71.446 79.054 1.053-.357v87.071a51.077 51.077 0 0 1-8.405 27.7 51.036 51.036 0 0 1-22.108 18.674c-1.208.515-11.716 4.127-21.969 7.626a9001.607 9001.607 0 0 1-18.465 6.28l-1.052.356V139.334a51.026 51.026 0 0 1 8.398-27.706A50.986 50.986 0 0 1 31.014 92.96c1.187-.512 11.698-4.126 21.958-7.627a9270.465 9270.465 0 0 1 18.474-6.279Z"/></g><g clip-path="url(#E)" filter="url(#F)" opacity=".8"><path fill="url(#G)" fill-opacity=".6" d="M129.819 8.547a19.727 19.727 0 0 0-8.566 7.212A19.666 19.666 0 0 0 118 26.463v33.576s15.246-5.15 16.181-5.548a19.753 19.753 0 0 0 8.563-7.214 19.696 19.696 0 0 0 3.256-10.7V3s-15.256 5.15-16.181 5.547Z"/><path fill="#60AAFB" fill-opacity=".2" d="M129.819 8.547a19.727 19.727 0 0 0-8.566 7.212A19.666 19.666 0 0 0 118 26.463v33.576s15.246-5.15 16.181-5.548a19.753 19.753 0 0 0 8.563-7.214 19.696 19.696 0 0 0 3.256-10.7V3s-15.256 5.15-16.181 5.547Z"/><path stroke="url(#H)" stroke-opacity=".6" d="m143.762 4.284 1.738-.587V36.574a19.203 19.203 0 0 1-3.173 10.428 19.256 19.256 0 0 1-8.345 7.03c-.455.193-4.463 1.568-8.403 2.91a3687.08 3687.08 0 0 1-5.343 1.813l-1.736.587V26.464a19.172 19.172 0 0 1 3.17-10.43 19.231 19.231 0 0 1 8.348-7.028c.445-.19 4.454-1.566 8.399-2.908 1.965-.669 3.9-1.325 5.345-1.814Z"/><path stroke="url(#I)" d="m143.762 4.284 1.738-.587V36.574a19.203 19.203 0 0 1-3.173 10.428 19.256 19.256 0 0 1-8.345 7.03c-.455.193-4.463 1.568-8.403 2.91a3687.08 3687.08 0 0 1-5.343 1.813l-1.736.587V26.464a19.172 19.172 0 0 1 3.17-10.43 19.231 19.231 0 0 1 8.348-7.028c.445-.19 4.454-1.566 8.399-2.908 1.965-.669 3.9-1.325 5.345-1.814Z"/></g><defs><linearGradient id="c" x1="1555.01" x2="1611.52" y1="242" y2="255.347" gradientUnits="userSpaceOnUse"><stop stop-color="#fff" stop-opacity=".2"/><stop offset="1" stop-color="#fff" stop-opacity="0"/></linearGradient><linearGradient id="d" x1="1588.22" x2="1571.81" y1="302.365" y2="302.53" gradientUnits="userSpaceOnUse"><stop stop-color="#fff"/><stop offset="1" stop-color="#EFEFEF" stop-opacity="0"/></linearGradient><linearGradient id="e" x1="1531" x2="1555.23" y1="242" y2="246.095" gradientUnits="userSpaceOnUse"><stop stop-color="#fff" stop-opacity=".5"/><stop offset="1" stop-color="#fff" stop-opacity="0"/></linearGradient><linearGradient id="h" x1="1468" x2="1573.37" y1="50" y2="88.304" gradientUnits="userSpaceOnUse"><stop stop-color="#fff" stop-opacity=".2"/><stop offset="1" stop-color="#fff" stop-opacity="0"/></linearGradient><linearGradient id="i" x1="1534.41" x2="1501.6" y1="128.408" y2="128.917" gradientUnits="userSpaceOnUse"><stop stop-color="#fff"/><stop offset="1" stop-color="#EFEFEF" stop-opacity="0"/></linearGradient><linearGradient id="j" x1="1420" x2="1466.67" y1="50" y2="62.141" gradientUnits="userSpaceOnUse"><stop stop-color="#fff" stop-opacity=".5"/><stop offset="1" stop-color="#fff" stop-opacity="0"/></linearGradient><linearGradient id="m" x1="1512.5" x2="1570.65" y1="0" y2="21.178" gradientUnits="userSpaceOnUse"><stop stop-color="#fff" stop-opacity=".2"/><stop offset="1" stop-color="#fff" stop-opacity="0"/></linearGradient><linearGradient id="n" x1="1549.16" x2="1531.05" y1="43.204" y2="43.486" gradientUnits="userSpaceOnUse"><stop stop-color="#fff"/><stop offset="1" stop-color="#EFEFEF" stop-opacity="0"/></linearGradient><linearGradient id="o" x1="1486" x2="1511.76" y1="0" y2="6.714" gradientUnits="userSpaceOnUse"><stop stop-color="#fff" stop-opacity=".5"/><stop offset="1" stop-color="#fff" stop-opacity="0"/></linearGradient><linearGradient id="r" x1="1608.5" x2="1633.62" y1="130" y2="139.322" gradientUnits="userSpaceOnUse"><stop stop-color="#fff" stop-opacity=".2"/><stop offset="1" stop-color="#fff" stop-opacity="0"/></linearGradient><linearGradient id="s" x1="1624.41" x2="1616.55" y1="148.402" y2="148.526" gradientUnits="userSpaceOnUse"><stop stop-color="#fff"/><stop offset="1" stop-color="#EFEFEF" stop-opacity="0"/></linearGradient><linearGradient id="t" x1="1597" x2="1608.15" y1="130" y2="132.962" gradientUnits="userSpaceOnUse"><stop stop-color="#fff" stop-opacity=".5"/><stop offset="1" stop-color="#fff" stop-opacity="0"/></linearGradient><linearGradient id="w" x1="73.012" x2="157.687" y1="134" y2="154.22" gradientUnits="userSpaceOnUse"><stop stop-color="#fff" stop-opacity=".2"/><stop offset="1" stop-color="#fff" stop-opacity="0"/></linearGradient><linearGradient id="x" x1="122.836" x2="98.218" y1="223.548" y2="223.799" gradientUnits="userSpaceOnUse"><stop stop-color="#fff"/><stop offset="1" stop-color="#EFEFEF" stop-opacity="0"/></linearGradient><linearGradient id="y" x1="37" x2="73.321" y1="134" y2="140.208" gradientUnits="userSpaceOnUse"><stop stop-color="#fff" stop-opacity=".5"/><stop offset="1" stop-color="#fff" stop-opacity="0"/></linearGradient><linearGradient id="B" x1="36.5" x2="116.621" y1="78" y2="107.133" gradientUnits="userSpaceOnUse"><stop stop-color="#fff" stop-opacity=".2"/><stop offset="1" stop-color="#fff" stop-opacity="0"/></linearGradient><linearGradient id="C" x1="86.998" x2="62.05" y1="137.606" y2="137.994" gradientUnits="userSpaceOnUse"><stop stop-color="#fff"/><stop offset="1" stop-color="#EFEFEF" stop-opacity="0"/></linearGradient><linearGradient id="D" x1="0" x2="35.484" y1="78" y2="87.235" gradientUnits="userSpaceOnUse"><stop stop-color="#fff" stop-opacity=".5"/><stop offset="1" stop-color="#fff" stop-opacity="0"/></linearGradient><linearGradient id="G" x1="132" x2="162.712" y1="3" y2="14.197" gradientUnits="userSpaceOnUse"><stop stop-color="#fff" stop-opacity=".2"/><stop offset="1" stop-color="#fff" stop-opacity="0"/></linearGradient><linearGradient id="H" x1="151.369" x2="141.8" y1="25.802" y2="25.951" gradientUnits="userSpaceOnUse"><stop stop-color="#fff"/><stop offset="1" stop-color="#EFEFEF" stop-opacity="0"/></linearGradient><linearGradient id="I" x1="118" x2="131.606" y1="3" y2="6.55" gradientUnits="userSpaceOnUse"><stop stop-color="#fff" stop-opacity=".5"/><stop offset="1" stop-color="#fff" stop-opacity="0"/></linearGradient><clipPath id="a"><path fill="#fff" d="M1531 242h48v151h-48z"/></clipPath><clipPath id="f"><path fill="#fff" d="M1420 50h96v196h-96z"/></clipPath><clipPath id="k"><path fill="#fff" d="M1486 0h53v108h-53z"/></clipPath><clipPath id="p"><path fill="#fff" d="M1597 130h23v46h-23z"/></clipPath><clipPath id="u"><path fill="#fff" d="M37 134h72v224H37z"/></clipPath><clipPath id="z"><path fill="#fff" d="M0 78h73v149H0z"/></clipPath><clipPath id="E"><path fill="#fff" d="M118 3h28v57h-28z"/></clipPath><filter id="b" width="100.017" height="203" x="1505" y="216" color-interpolation-filters="sRGB" filterUnits="userSpaceOnUse"><feFlood flood-opacity="0" result="BackgroundImageFix"/><feGaussianBlur in="BackgroundImageFix" stdDeviation="13"/><feComposite in2="SourceAlpha" operator="in" result="effect1_backgroundBlur_24_1136"/><feBlend in="SourceGraphic" in2="effect1_backgroundBlur_24_1136" result="shape"/></filter><filter id="g" width="147.999" height="248.134" x="1394" y="24" color-interpolation-filters="sRGB" filterUnits="userSpaceOnUse"><feFlood flood-opacity="0" result="BackgroundImageFix"/><feGaussianBlur in="BackgroundImageFix" stdDeviation="13"/><feComposite in2="SourceAlpha" operator="in" result="effect1_backgroundBlur_24_1136"/><feBlend in="SourceGraphic" in2="effect1_backgroundBlur_24_1136" result="shape"/></filter><filter id="l" width="105" height="160.074" x="1460" y="-26" color-interpolation-filters="sRGB" filterUnits="userSpaceOnUse"><feFlood flood-opacity="0" result="BackgroundImageFix"/><feGaussianBlur in="BackgroundImageFix" stdDeviation="13"/><feComposite in2="SourceAlpha" operator="in" result="effect1_backgroundBlur_24_1136"/><feBlend in="SourceGraphic" in2="effect1_backgroundBlur_24_1136" result="shape"/></filter><filter id="q" width="75" height="98.031" x="1571" y="104" color-interpolation-filters="sRGB" filterUnits="userSpaceOnUse"><feFlood flood-opacity="0" result="BackgroundImageFix"/><feGaussianBlur in="BackgroundImageFix" stdDeviation="13"/><feComposite in2="SourceAlpha" operator="in" result="effect1_backgroundBlur_24_1136"/><feBlend in="SourceGraphic" in2="effect1_backgroundBlur_24_1136" result="shape"/></filter><filter id="v" width="124.024" height="276" x="11" y="108" color-interpolation-filters="sRGB" filterUnits="userSpaceOnUse"><feFlood flood-opacity="0" result="BackgroundImageFix"/><feGaussianBlur in="BackgroundImageFix" stdDeviation="13"/><feComposite in2="SourceAlpha" operator="in" result="effect1_backgroundBlur_24_1136"/><feBlend in="SourceGraphic" in2="effect1_backgroundBlur_24_1136" result="shape"/></filter><filter id="A" width="124.999" height="201.102" x="-26" y="52" color-interpolation-filters="sRGB" filterUnits="userSpaceOnUse"><feFlood flood-opacity="0" result="BackgroundImageFix"/><feGaussianBlur in="BackgroundImageFix" stdDeviation="13"/><feComposite in2="SourceAlpha" operator="in" result="effect1_backgroundBlur_24_1136"/><feBlend in="SourceGraphic" in2="effect1_backgroundBlur_24_1136" result="shape"/></filter><filter id="F" width="80" height="109.039" x="92" y="-23" color-interpolation-filters="sRGB" filterUnits="userSpaceOnUse"><feFlood flood-opacity="0" result="BackgroundImageFix"/><feGaussianBlur in="BackgroundImageFix" stdDeviation="13"/><feComposite in2="SourceAlpha" operator="in" result="effect1_backgroundBlur_24_1136"/><feBlend in="SourceGraphic" in2="effect1_backgroundBlur_24_1136" result="shape"/></filter></defs></svg>