<svg width="391" height="374" viewBox="0 0 391 374" fill="none" xmlns="http://www.w3.org/2000/svg">
<g clip-path="url(#clip0_16_371)">
<path opacity="0.1" d="M315.25 306.86C282 326.36 242 341.9 196.48 353C151.86 363.92 101.74 370.59 47.0498 373H369.05C374.399 373 379.53 370.875 383.312 367.092C387.095 363.31 389.22 358.179 389.22 352.83V241C385 248 365.13 277.64 315.25 306.86Z" fill="#355DFB"/>
<path opacity="0.1" d="M219.6 288.27C162.52 328.44 92.8399 356.56 12.3599 371.93C80.4599 371.23 142.14 364.25 195.84 351.13C241.16 340.06 280.94 324.62 314.06 305.24C370.42 272.24 388.17 238.87 388.34 238.54C388.426 238.379 388.554 238.244 388.711 238.151C388.868 238.057 389.047 238.009 389.23 238.01V11.1599C386.3 34.8199 375.23 96.8199 335.85 163.16C306.415 212.638 266.787 255.286 219.6 288.27Z" fill="#0000DE"/>
<path d="M1 373C320 373 389.23 239 389.23 239" stroke="#355DFB" stroke-width="2" stroke-miterlimit="10" stroke-linecap="round"/>
<path d="M1 373C374 308 389.23 1 389.23 1" stroke="#0000DE" stroke-width="2" stroke-miterlimit="10" stroke-linecap="round"/>
</g>
<defs>
<clipPath id="clip0_16_371">
<rect width="390.23" height="374" fill="white"/>
</clipPath>
</defs>
</svg>
