<svg xmlns="http://www.w3.org/2000/svg" width="364" height="84" fill="none"><path stroke="#7C83A1" stroke-linecap="round" stroke-width="2" d="M2.512 69.444 27 73.5M27 73.5 51.5 28M52 28l28 38M80 66l21.5 4.5M101.001 70.502 131 35M131 35l24 2M170 61l-15-24M180.5 61l33.001-59M170 61h10M214 2l24 47M258 61l-20-12M281 44l-22.999 16.5M301 55l-20-11M332 7l-31 48M332 7l28 36"/><mask id="a" fill="#fff"><ellipse cx="2.387" cy="69.444" rx="1.898" ry="1.918"/></mask><ellipse cx="2.387" cy="69.444" fill="#fff" rx="1.898" ry="1.918"/><path fill="#7C83A1" d="M2.285 69.444c0-.015.008-.036.023-.05a.103.103 0 0 1 .032-.021.127.127 0 0 1 .047-.01v4c2.173 0 3.898-1.775 3.898-3.919h-4Zm.102-.081c.014 0 .031.003.048.01a.103.103 0 0 1 .032.021.078.078 0 0 1 .022.05h-4c0 2.144 1.725 3.919 3.898 3.919v-4Zm.102.081a.078.078 0 0 1-.022.05.1.1 0 0 1-.032.022.125.125 0 0 1-.048.01v-4c-2.173 0-3.898 1.774-3.898 3.918h4Zm-.102.082a.125.125 0 0 1-.047-.01.1.1 0 0 1-.032-.022.078.078 0 0 1-.023-.05h4c0-2.144-1.725-3.918-3.898-3.918v4Z" mask="url(#a)"/><mask id="b" fill="#fff"><ellipse cx="27.186" cy="73.629" rx="1.898" ry="1.918"/></mask><ellipse cx="27.186" cy="73.629" fill="#fff" rx="1.898" ry="1.918"/><path fill="#7C83A1" d="M27.084 73.63c0-.016.008-.037.023-.05a.099.099 0 0 1 .032-.022.125.125 0 0 1 .047-.01v4c2.173 0 3.898-1.775 3.898-3.919h-4Zm.102-.082c.014 0 .031.003.047.01a.099.099 0 0 1 .033.021.078.078 0 0 1 .022.05h-4c0 2.144 1.725 3.919 3.898 3.919v-4Zm.102.081a.078.078 0 0 1-.022.05.102.102 0 0 1-.032.022.127.127 0 0 1-.048.01v-4c-2.173 0-3.898 1.774-3.898 3.918h4Zm-.102.082a.127.127 0 0 1-.047-.01.102.102 0 0 1-.032-.021.078.078 0 0 1-.023-.05h4c0-2.145-1.725-3.92-3.898-3.92v4Z" mask="url(#b)"/><mask id="c" fill="#fff"><ellipse cx="51.86" cy="28.119" rx="1.898" ry="1.918"/></mask><ellipse cx="51.86" cy="28.119" fill="#fff" rx="1.898" ry="1.918"/><path fill="#7C83A1" d="M51.758 28.119c0-.015.009-.036.023-.05a.1.1 0 0 1 .032-.022.127.127 0 0 1 .047-.01v4c2.173 0 3.898-1.775 3.898-3.918h-4Zm.102-.082c.014 0 .031.003.048.01a.1.1 0 0 1 .032.021.078.078 0 0 1 .022.05h-4c0 2.144 1.726 3.919 3.898 3.919v-4Zm.102.082a.078.078 0 0 1-.022.05.1.1 0 0 1-.032.021.127.127 0 0 1-.048.01v-4c-2.172 0-3.898 1.775-3.898 3.919h4Zm-.102.081a.127.127 0 0 1-.047-.01.1.1 0 0 1-.032-.021.078.078 0 0 1-.023-.05h4c0-2.144-1.725-3.919-3.898-3.919v4Z" mask="url(#c)"/><mask id="d" fill="#fff"><ellipse cx="79.898" cy="65.918" rx="1.898" ry="1.918"/></mask><ellipse cx="79.898" cy="65.918" fill="#fff" rx="1.898" ry="1.918"/><path fill="#7C83A1" d="M79.796 65.918c0-.015.008-.036.022-.05a.1.1 0 0 1 .033-.021.127.127 0 0 1 .047-.01v4c2.173 0 3.898-1.775 3.898-3.919h-4Zm.102-.081c.014 0 .03.003.047.01a.1.1 0 0 1 .033.021.078.078 0 0 1 .022.05h-4c0 2.144 1.725 3.919 3.898 3.919v-4Zm.102.081a.078.078 0 0 1-.022.05.1.1 0 0 1-.033.022.127.127 0 0 1-.047.01v-4C77.725 62 76 63.775 76 65.918h4Zm-.102.082a.127.127 0 0 1-.047-.01.1.1 0 0 1-.033-.021.078.078 0 0 1-.022-.05h4c0-2.144-1.725-3.919-3.898-3.919v4Z" mask="url(#d)"/><mask id="e" fill="#fff"><ellipse cx="101.209" cy="70.302" rx="1.898" ry="1.918"/></mask><ellipse cx="101.209" cy="70.302" fill="#fff" rx="1.898" ry="1.918"/><path fill="#7C83A1" d="M101.107 70.302c0-.015.008-.036.022-.05a.103.103 0 0 1 .032-.022.13.13 0 0 1 .048-.01v4c2.172 0 3.898-1.775 3.898-3.918h-4Zm.102-.082c.013 0 .03.003.047.01a.103.103 0 0 1 .032.021.08.08 0 0 1 .023.05h-4c0 2.144 1.725 3.919 3.898 3.919v-4Zm.102.082a.08.08 0 0 1-.023.05.103.103 0 0 1-.032.021.129.129 0 0 1-.047.01v-4c-2.173 0-3.898 1.775-3.898 3.919h4Zm-.102.081a.13.13 0 0 1-.048-.01.103.103 0 0 1-.032-.021.078.078 0 0 1-.022-.05h4c0-2.144-1.726-3.919-3.898-3.919v4Z" mask="url(#e)"/><mask id="f" fill="#fff"><ellipse cx="130.898" cy="34.918" rx="1.898" ry="1.918"/></mask><ellipse cx="130.898" cy="34.918" fill="#fff" rx="1.898" ry="1.918"/><path fill="#7C83A1" d="M130.796 34.918c0-.015.008-.036.022-.05a.125.125 0 0 1 .08-.032v4c2.173 0 3.898-1.774 3.898-3.918h-4Zm.102-.081a.125.125 0 0 1 .08.031.078.078 0 0 1 .022.05h-4c0 2.144 1.725 3.919 3.898 3.919v-4Zm.102.081a.078.078 0 0 1-.022.05.125.125 0 0 1-.08.032v-4c-2.173 0-3.898 1.775-3.898 3.918h4Zm-.102.082a.125.125 0 0 1-.08-.032.078.078 0 0 1-.022-.05h4c0-2.143-1.725-3.918-3.898-3.918v4Z" mask="url(#f)"/><mask id="g" fill="#fff"><ellipse cx="154.898" cy="36.918" rx="1.898" ry="1.918"/></mask><ellipse cx="154.898" cy="36.918" fill="#fff" rx="1.898" ry="1.918"/><path fill="#7C83A1" d="M154.796 36.918c0-.015.008-.036.022-.05a.125.125 0 0 1 .08-.032v4c2.173 0 3.898-1.774 3.898-3.918h-4Zm.102-.081a.125.125 0 0 1 .08.031.078.078 0 0 1 .022.05h-4c0 2.144 1.725 3.919 3.898 3.919v-4Zm.102.081a.078.078 0 0 1-.022.05.125.125 0 0 1-.08.032v-4c-2.173 0-3.898 1.775-3.898 3.918h4Zm-.102.082a.125.125 0 0 1-.08-.032.078.078 0 0 1-.022-.05h4c0-2.143-1.725-3.918-3.898-3.918v4Z" mask="url(#g)"/><mask id="h" fill="#fff"><ellipse cx="169.898" cy="60.918" rx="1.898" ry="1.918"/></mask><ellipse cx="169.898" cy="60.918" fill="#fff" rx="1.898" ry="1.918"/><path fill="#7C83A1" d="M169.796 60.918c0-.015.008-.036.022-.05a.125.125 0 0 1 .08-.032v4c2.173 0 3.898-1.774 3.898-3.918h-4Zm.102-.081a.125.125 0 0 1 .08.031.078.078 0 0 1 .022.05h-4c0 2.144 1.725 3.919 3.898 3.919v-4Zm.102.081a.078.078 0 0 1-.022.05.125.125 0 0 1-.08.032v-4c-2.173 0-3.898 1.775-3.898 3.918h4Zm-.102.082a.125.125 0 0 1-.08-.032.078.078 0 0 1-.022-.05h4c0-2.143-1.725-3.918-3.898-3.918v4Z" mask="url(#h)"/><mask id="i" fill="#fff"><ellipse cx="213.898" cy="1.918" rx="1.898" ry="1.918"/></mask><ellipse cx="213.898" cy="1.918" fill="#fff" rx="1.898" ry="1.918"/><path fill="#7C83A1" d="M213.796 1.918c0-.015.008-.036.022-.05a.124.124 0 0 1 .08-.031v4c2.173 0 3.898-1.775 3.898-3.919h-4Zm.102-.081a.124.124 0 0 1 .08.031.078.078 0 0 1 .022.05h-4c0 2.144 1.725 3.919 3.898 3.919v-4Zm.102.081a.078.078 0 0 1-.022.05.124.124 0 0 1-.08.031v-3.999C211.725-2 210-.226 210 1.918h4Zm-.102.082a.124.124 0 0 1-.08-.031.078.078 0 0 1-.022-.05h4c0-2.145-1.725-3.919-3.898-3.919v4Z" mask="url(#i)"/><mask id="j" fill="#fff"><ellipse cx="179.898" cy="60.918" rx="1.898" ry="1.918"/></mask><ellipse cx="179.898" cy="60.918" fill="#fff" rx="1.898" ry="1.918"/><path fill="#7C83A1" d="M179.796 60.918c0-.015.008-.036.022-.05a.125.125 0 0 1 .08-.032v4c2.173 0 3.898-1.774 3.898-3.918h-4Zm.102-.081a.125.125 0 0 1 .08.031.078.078 0 0 1 .022.05h-4c0 2.144 1.725 3.919 3.898 3.919v-4Zm.102.081a.078.078 0 0 1-.022.05.125.125 0 0 1-.08.032v-4c-2.173 0-3.898 1.775-3.898 3.918h4Zm-.102.082a.125.125 0 0 1-.08-.032.078.078 0 0 1-.022-.05h4c0-2.143-1.725-3.918-3.898-3.918v4Z" mask="url(#j)"/><mask id="k" fill="#fff"><ellipse cx="237.898" cy="48.918" rx="1.898" ry="1.918"/></mask><ellipse cx="237.898" cy="48.918" fill="#fff" rx="1.898" ry="1.918"/><path fill="#7C83A1" d="M237.796 48.918c0-.015.008-.036.022-.05a.125.125 0 0 1 .08-.032v4c2.173 0 3.898-1.774 3.898-3.918h-4Zm.102-.081a.125.125 0 0 1 .08.031.078.078 0 0 1 .022.05h-4c0 2.144 1.725 3.919 3.898 3.919v-4Zm.102.081a.078.078 0 0 1-.022.05.125.125 0 0 1-.08.032v-4c-2.173 0-3.898 1.775-3.898 3.918h4Zm-.102.082a.125.125 0 0 1-.08-.032.078.078 0 0 1-.022-.05h4c0-2.143-1.725-3.918-3.898-3.918v4Z" mask="url(#k)"/><mask id="l" fill="#fff"><ellipse cx="257.898" cy="60.918" rx="1.898" ry="1.918"/></mask><ellipse cx="257.898" cy="60.918" fill="#fff" rx="1.898" ry="1.918"/><path fill="#7C83A1" d="M257.796 60.918c0-.015.008-.036.022-.05a.125.125 0 0 1 .08-.032v4c2.173 0 3.898-1.774 3.898-3.918h-4Zm.102-.081a.125.125 0 0 1 .08.031.078.078 0 0 1 .022.05h-4c0 2.144 1.725 3.919 3.898 3.919v-4Zm.102.081a.078.078 0 0 1-.022.05.125.125 0 0 1-.08.032v-4c-2.173 0-3.898 1.775-3.898 3.918h4Zm-.102.082a.125.125 0 0 1-.08-.032.078.078 0 0 1-.022-.05h4c0-2.143-1.725-3.918-3.898-3.918v4Z" mask="url(#l)"/><mask id="m" fill="#fff"><ellipse cx="280.898" cy="43.918" rx="1.898" ry="1.918"/></mask><ellipse cx="280.898" cy="43.918" fill="#fff" rx="1.898" ry="1.918"/><path fill="#7C83A1" d="M280.796 43.918c0-.015.008-.036.022-.05a.125.125 0 0 1 .08-.032v4c2.173 0 3.898-1.774 3.898-3.918h-4Zm.102-.081a.125.125 0 0 1 .08.031.078.078 0 0 1 .022.05h-4c0 2.144 1.725 3.919 3.898 3.919v-4Zm.102.081a.078.078 0 0 1-.022.05.125.125 0 0 1-.08.032v-4c-2.173 0-3.898 1.775-3.898 3.918h4Zm-.102.082a.125.125 0 0 1-.08-.032.078.078 0 0 1-.022-.05h4c0-2.143-1.725-3.918-3.898-3.918v4Z" mask="url(#m)"/><mask id="n" fill="#fff"><ellipse cx="300.898" cy="54.918" rx="1.898" ry="1.918"/></mask><ellipse cx="300.898" cy="54.918" fill="#fff" rx="1.898" ry="1.918"/><path fill="#7C83A1" d="M300.796 54.918c0-.015.008-.036.022-.05a.125.125 0 0 1 .08-.032v4c2.173 0 3.898-1.774 3.898-3.918h-4Zm.102-.081a.125.125 0 0 1 .08.031.078.078 0 0 1 .022.05h-4c0 2.144 1.725 3.919 3.898 3.919v-4Zm.102.081a.078.078 0 0 1-.022.05.125.125 0 0 1-.08.032v-4c-2.173 0-3.898 1.775-3.898 3.918h4Zm-.102.082a.125.125 0 0 1-.08-.032.078.078 0 0 1-.022-.05h4c0-2.143-1.725-3.918-3.898-3.918v4Z" mask="url(#n)"/><mask id="o" fill="#fff"><ellipse cx="331.898" cy="6.918" rx="1.898" ry="1.918"/></mask><ellipse cx="331.898" cy="6.918" fill="#fff" rx="1.898" ry="1.918"/><path fill="#7C83A1" d="M331.796 6.918c0-.015.008-.036.022-.05a.124.124 0 0 1 .08-.031v4c2.173 0 3.898-1.775 3.898-3.919h-4Zm.102-.081a.124.124 0 0 1 .08.031.078.078 0 0 1 .022.05h-4c0 2.144 1.725 3.919 3.898 3.919v-4Zm.102.081a.078.078 0 0 1-.022.05.124.124 0 0 1-.08.031V3.001C329.725 3 328 4.774 328 6.918h4Zm-.102.082a.124.124 0 0 1-.08-.031.078.078 0 0 1-.022-.05h4c0-2.145-1.725-3.919-3.898-3.919v4Z" mask="url(#o)"/><mask id="p" fill="#fff"><ellipse cx="359.898" cy="42.918" rx="1.898" ry="1.918"/></mask><ellipse cx="359.898" cy="42.918" fill="#fff" rx="1.898" ry="1.918"/><path fill="#7C83A1" d="M359.796 42.918c0-.015.008-.036.022-.05a.125.125 0 0 1 .08-.032v4c2.173 0 3.898-1.774 3.898-3.918h-4Zm.102-.081a.125.125 0 0 1 .08.031.078.078 0 0 1 .022.05h-4c0 2.144 1.725 3.919 3.898 3.919v-4Zm.102.081a.078.078 0 0 1-.022.05.125.125 0 0 1-.08.032v-4c-2.173 0-3.898 1.775-3.898 3.918h4Zm-.102.082a.125.125 0 0 1-.08-.032.078.078 0 0 1-.022-.05h4c0-2.143-1.725-3.918-3.898-3.918v4Z" mask="url(#p)"/><path stroke="#0000DE" stroke-linecap="round" stroke-width="2" d="m4.12 69.987 50.841-12.96M54.96 57.028l50.843-4.985M105.803 52.043l50.842-5.981M156.645 46.062l50.71-3.988M207.355 42.074l50.974-5.981M257.83 36.093l51.34-5.982M309.17 30.112l50.842-8.983"/><circle cx="3.988" cy="69.988" r="2.988" fill="#fff" stroke="#0000DE" stroke-width="2"/><circle cx="54.83" cy="57.028" r="2.988" fill="#fff" stroke="#0000DE" stroke-width="2"/><circle cx="105.671" cy="52.043" r="2.988" fill="#fff" stroke="#0000DE" stroke-width="2"/><circle cx="156.645" cy="46.062" r="2.988" fill="#fff" stroke="#0000DE" stroke-width="2"/><circle cx="207.355" cy="42.074" r="2.988" fill="#fff" stroke="#0000DE" stroke-width="2"/><circle cx="258.197" cy="36.093" r="2.988" fill="#fff" stroke="#0000DE" stroke-width="2"/><circle cx="309.039" cy="30.112" r="2.988" fill="#fff" stroke="#0000DE" stroke-width="2"/><circle cx="360.013" cy="21.14" r="2.988" fill="#fff" stroke="#0000DE" stroke-width="2"/></svg>